<?xml version="1.0" encoding="utf-8"?>
<svg width="20px" height="20px" viewBox="0 0 32 32" version="1.1" xmlns="http://www.w3.org/2000/svg" xmlns:xlink="http://www.w3.org/1999/xlink">
<g id="icomoon-ignore">
</g>
<!-- Outer path of the target, keeping the overall shape -->
<path d="M28.795 15.834c0-7.067-5.729-12.795-12.795-12.795s-12.795 5.728-12.795 12.795c0 3.894 1.742 7.38 4.487 9.726l-2.182 2.736 0.834 0.665 2.187-2.742c2.102 1.515 4.68 2.41 7.469 2.41 2.777 0 5.344-0.887 7.441-2.39l2.175 2.722 0.833-0.665-2.167-2.713c2.76-2.347 4.513-5.843 4.513-9.749zM4.271 15.834c0-6.467 5.261-11.729 11.729-11.729s11.729 5.261 11.729 11.729c0 6.467-5.261 11.729-11.729 11.729s-11.729-5.262-11.729-11.729z" fill="#000000">
</path>

<!-- Punctuation mark inside the target -->
<g id="Punctuation_Mark_In_Target">
    <rect x="14" y="6" style="fill:none;stroke:#000000;stroke-width:2;stroke-miterlimit:10;" width="4" height="14"/>
    <rect x="14" y="23" style="fill:none;stroke:#000000;stroke-width:2;stroke-miterlimit:10;" width="4" height="4"/>
</g>
</svg>
