<svg fill="#000000" width="20px" height="20px" viewBox="0 0 24 24" xmlns="http://www.w3.org/2000/svg">
  <g>
    <!-- Shield Path -->
    <path fill="gold" fill-rule="evenodd" d="M12,23 C6,20.3270758 3,17.6604092 3,15 L3,5 C3,4 3.5,4 5,3 C5.16179337,2.89213775 8.56320917,1 12,1 C14.9952495,1 17.5,2 19,3 C20.5,4 21,4 21,5 C21.0264318,5.29131477 21,13.5 21,15 C21,17.6666667 18,20.3333333 12,23 Z M19,15 C19,14.7696854 19.0005911,14.3838015 19.0018395,13.7546873 C19.002442,13.4510385 19.0036756,12.8625961 19.0058778,11.801424 C19.0071585,11.1695166 19.0081782,10.6272502 19.0090335,10.1097828 C19.0127226,7.87763814 19.0117352,5.96181826 19.0095779,5.36928408 C18.6788452,5.1638246 18.1627209,4.84551481 17.8905996,4.66410059 C16.4143231,3.67991623 14.2601784,3 12,3 C9.8380869,3 7.02863525,4.05127735 6.10940039,4.66410059 C5.83989194,4.84377289 5.33104387,5.15772448 5,5.3633347 L5,15 C5,16.5084521 7.22911083,18.568744 12.000926,20.8019938 C16.7721586,18.5737351 19,16.5142377 19,15 Z"/>




<g fill="lightblue" transform="scale(0.5) translate(9,7)" data-name="Layer 2" id="Layer_2">

<path d="M18,11a1,1,0,0,1-1,1,5,5,0,0,0-5,5,1,1,0,0,1-2,0,5,5,0,0,0-5-5,1,1,0,0,1,0-2,5,5,0,0,0,5-5,1,1,0,0,1,2,0,5,5,0,0,0,5,5A1,1,0,0,1,18,11Z"/>

<path d="M19,24a1,1,0,0,1-1,1,2,2,0,0,0-2,2,1,1,0,0,1-2,0,2,2,0,0,0-2-2,1,1,0,0,1,0-2,2,2,0,0,0,2-2,1,1,0,0,1,2,0,2,2,0,0,0,2,2A1,1,0,0,1,19,24Z"/>

<path d="M28,17a1,1,0,0,1-1,1,4,4,0,0,0-4,4,1,1,0,0,1-2,0,4,4,0,0,0-4-4,1,1,0,0,1,0-2,4,4,0,0,0,4-4,1,1,0,0,1,2,0,4,4,0,0,0,4,4A1,1,0,0,1,28,17Z"/>

</g>
    
  </g>
</svg>
