<?xml version="1.0" encoding="utf-8"?>
<!-- Uploaded to SVGRepo https://www.svgrepo.com -->
<!-- License: CC0. Made by SVG Repo: https://www.svgrepo.com/svg/307197/anger -->
<svg fill="red" version="1.1" id="Layer_1" xmlns="http://www.w3.org/2000/svg" xmlns:xlink="http://www.w3.org/1999/xlink" x="0px" y="0px"
	 width="20px" height="20px" viewBox="0 0 185 260" style="enable-background:new 0 0 185 260;" xml:space="preserve">
<path d="M156.8,92.6c-3.1-8.5-1.4-17.1-2.5-26.3c-1.5-12.2-15.2-16.5-15.2-16.5s1.7,2,2.9,9.3c1.2,7.2-5.8,16.8-5.8,16.8
	s0.3-22.9-11.9-33.8c-9.7-8.7-13.4-26-13.4-26s-7.1,10.6-3.7,26.2c3.1,14.1-2.6,24.5-2.6,24.5s-0.4-6.7-8.9-22.4
	c-6.2-11.5,0.2-21.4,0.2-30.7S86.4,2,86.4,2s4.3,7.3-0.7,14.7c-3.8,5.6-14.2,11.7-14.4,25.9c-0.1,8.5-2.2,19-2.9,20.6
	c-0.3-16.5-20.4-29-20.4-29s3.7,16,2,29.8c-1.7,13.7-9.2,22.6-9.2,22.6s0.7-5.1-1-10.4c-3.3-9.9-12.4-12.4-12.4-12.4
	s1.9,27.2-9.5,49.5c-5.1,10.1-15.6,31.2-15.6,54.5c0,49.8,40.4,90.2,90.2,90.2s90.2-40.4,90.2-90.2
	C182.7,127.7,159.2,99.2,156.8,92.6z M38.4,162.1c0-2.2,0.4-4.3,1.2-6.3l-13.2-5.1l3.6-9.2l52.2,20.3l-3.6,9.2l-6.2-2.4
	c-2.6,6.5-8.9,11.2-16.4,11.2C46.2,179.7,38.4,171.8,38.4,162.1z M116.3,239.1c-15.1,6.9-32.4,6.9-47.5,0c-4.1-1.9-6.1-6.6-4.7-10.8
	l4.6-13.3c1.2-3.6,4.6-5.9,8.3-5.9h31.2c3.8,0,7.1,2.4,8.3,5.9l4.6,13.3C122.4,232.5,120.4,237.2,116.3,239.1z M146.6,162.1
	c0,9.7-7.9,17.6-17.6,17.6c-7.5,0-13.8-4.6-16.4-11.2l-6.2,2.4l-3.6-9.2l52.2-20.3l3.6,9.2l-13.2,5.1
	C146.2,157.8,146.6,159.9,146.6,162.1z"/>
</svg>
