<svg fill="#000000" width="20px" height="20px" viewBox="0 0 24 24" xmlns="http://www.w3.org/2000/svg">
  <g>
    <!-- Shield Path -->
    <path fill="green" fill-rule="evenodd" d="M12,23 C6,20.3270758 3,17.6604092 3,15 L3,5 C3,4 3.5,4 5,3 C5.16179337,2.89213775 8.56320917,1 12,1 C14.9952495,1 17.5,2 19,3 C20.5,4 21,4 21,5 C21.0264318,5.29131477 21,13.5 21,15 C21,17.6666667 18,20.3333333 12,23 Z M19,15 C19,14.7696854 19.0005911,14.3838015 19.0018395,13.7546873 C19.002442,13.4510385 19.0036756,12.8625961 19.0058778,11.801424 C19.0071585,11.1695166 19.0081782,10.6272502 19.0090335,10.1097828 C19.0127226,7.87763814 19.0117352,5.96181826 19.0095779,5.36928408 C18.6788452,5.1638246 18.1627209,4.84551481 17.8905996,4.66410059 C16.4143231,3.67991623 14.2601784,3 12,3 C9.8380869,3 7.02863525,4.05127735 6.10940039,4.66410059 C5.83989194,4.84377289 5.33104387,5.15772448 5,5.3633347 L5,15 C5,16.5084521 7.22911083,18.568744 12.000926,20.8019938 C16.7721586,18.5737351 19,16.5142377 19,15 Z"/>

    <!-- Cross Path, positioned in the center of the shield -->
    <!-- The cross's original viewBox is 24x24, same as the shield, so no scaling is needed.
         We just need to ensure its path is placed correctly. -->
    <g transform="translate(4.8,4) scale(0.6)"> <!-- No translation needed as both viewboxes are 24x24 and centered -->
        <path d="M21 14V10C21 9.44772 20.5523 9 20 9H15L15 4C15 3.44772 14.5523 3 14 3H10C9.44772 3 9 3.44772 9 4V9L4 9C3.44772 9 3 9.44772 3 10V14C3 14.5523 3.44772 15 4 15H9L9 20C9 20.5523 9.44771 21 10 21H14C14.5523 21 15 20.5523 15 20V15L20 15C20.5523 15 21 14.5523 21 14Z" stroke="#" stroke-width="2" stroke-linecap="round" stroke-linejoin="round" fill="green"/>
    </g>
  </g>
</svg>
