<svg fill="#000000" width="20px" height="20px" viewBox="0 0 24 24" xmlns="http://www.w3.org/2000/svg">
  <g>
    <!-- Shield Path -->
    <path fill="gray" fill-rule="evenodd" d="M12,23 C6,20.3270758 3,17.6604092 3,15 L3,5 C3,4 3.5,4 5,3 C5.16179337,2.89213775 8.56320917,1 12,1 C14.9952495,1 17.5,2 19,3 C20.5,4 21,4 21,5 C21.0264318,5.29131477 21,13.5 21,15 C21,17.6666667 18,20.3333333 12,23 Z M19,15 C19,14.7696854 19.0005911,14.3838015 19.0018395,13.7546873 C19.002442,13.4510385 19.0036756,12.8625961 19.0058778,11.801424 C19.0071585,11.1695166 19.0081782,10.6272502 19.0090335,10.1097828 C19.0127226,7.87763814 19.0117352,5.96181826 19.0095779,5.36928408 C18.6788452,5.1638246 18.1627209,4.84551481 17.8905996,4.66410059 C16.4143231,3.67991623 14.2601784,3 12,3 C9.8380869,3 7.02863525,4.05127735 6.10940039,4.66410059 C5.83989194,4.84377289 5.33104387,5.15772448 5,5.3633347 L5,15 C5,16.5084521 7.22911083,18.568744 12.000926,20.8019938 C16.7721586,18.5737351 19,16.5142377 19,15 Z"/>

    <!-- Boot Path, scaled and translated to be in the center of the shield -->
    <!-- The boot's original viewBox is 60.969x60.969. We scale it down by ~0.3 and translate it
         to center it within the 24x24 viewBox of the shield.
         Calculation: target_center (12) - (boot_center_original (30.4845) * scale (0.3))
         tx = 12 - (30.4845 * 0.3) = 12 - 9.14535 = 2.85465
         ty = 12 - (30.4845 * 0.3) = 12 - 9.14535 = 2.85465
    -->
    <g transform="translate(4.85465 3.85465) scale(0.24)">
        <path fill="white" d="M16.014,46.963c-0.742,4.453-2.12,9.117-0.53,9.365c1.591,0.247,3.817,0.706,6.36,0c2.545-0.707,3.18-1.944,6.254,2.614
            s20.99,0,20.99,0s0-2.333,0-4.664c0-2.333-4.771-2.757-8.162-4.134c-3.393-1.38-7.846-4.028-7.846-9.86c0-5.83,0-40.285,0-40.285
            L11.88,1.909c0,0,1.59,21.202,2.332,29.577C14.954,39.86,16.757,42.511,16.014,46.963z"/>
    </g>
  </g>
</svg>
