<?xml version="1.0" encoding="iso-8859-1"?>
<!-- Generator: Adobe Illustrator 16.0.0, SVG Export Plug-In . SVG Version: 6.00 Build 0)  -->
<!DOCTYPE svg PUBLIC "-//W3C//DTD SVG 1.1//EN" "http://www.w3.org/Graphics/SVG/1.1/DTD/svg11.dtd">
<!-- License: CC0. Made by SVG Repo: https://www.svgrepo.com/svg/161192/high-heel -->
<svg fill="#C37FD7" version="1.1" id="Capa_1" xmlns="http://www.w3.org/2000/svg" xmlns:xlink="http://www.w3.org/1999/xlink" x="0px" y="0px"
	 width="20px" height="20px" viewBox="0 0 60.921 60.921" style="enable-background:new 0 0 60.921 60.921;"
	 xml:space="preserve">
<g>
	<g>
		<path d="M49.524,41.004c-0.252,0.116-0.492,0.23-0.705,0.34c-0.25,0.126-0.469,0.247-0.649,0.356
			c-0.001,0-0.001,0.002-0.002,0.002c0.007,0,0.014,0.002,0.02,0.004c1.489,0.289,4.197,0.89,5.16,1.612l0.086,0.064l0.053,0.092
			c0.016,0.027,0.04,0.069,0.057,0.102c0.411,0.718,1.488,2.673,1.488,3.414c0,0.283-0.222,0.585-0.632,0.585
			c-0.694,0-3.523-1.354-6.043-2.634c0.011,0.075,0.016,0.145,0.03,0.22c0.279,1.479,1.392,2.209,1.403,2.215l0.662,0.427
			l-0.785,0.054c-0.269,0.019-1.203,0.076-1.992,0.076c-0.497,0-0.936-0.023-1.116-0.096c-0.568-0.226-1.854-1.842-1.681-3.438
			c0.062-0.579,0.037-0.917-0.002-1.108l-0.505,0.441c-0.091,0.734-0.4,3.019-0.809,3.836c-0.385,0.771-0.365,2.1-0.137,2.406
			c0.211,0.28,0.125,0.528,0.078,0.622l-0.184,0.304h-0.323c-0.123,0-0.501,0-3.192-1.504l-0.315-0.176l0.054-0.357
			c0.034-0.229,0.204-1.322,0.427-2.515l-13.286,3.747l-0.504,0.142l-0.505,0.142c2.379,5.911,4.417,7.308,9.221,7.308
			c1.032,0,2.184-0.059,3.518-0.123l0.419-0.021c8.207-0.401,19.894-3.847,20.011-3.88l0.138-0.043l0.098-0.106
			c1.651-1.808,2.196-3.598,1.624-5.317C59.54,44.708,53.877,42.341,49.524,41.004z"/>
		<path d="M8.653,58.111l-0.087,0.594h2.997l0.098-0.395c0.22-0.879,0.295-3.501,0.397-7.132c0.183-6.446,0.523-18.445,2.305-19.538
			c0.228-0.141,0.459-0.208,0.708-0.208c2.418,0,6.112,6.177,9.413,15.735l0.497-0.156l0.497-0.155l11.499-3.613l-0.248-0.486
			l-0.077-0.152l-0.099-0.193l0.28-0.268c0.006-0.005,0.017-0.016,0.027-0.023c0.059-0.051,0.201-0.158,0.476-0.309
			c-2.114-1.295-4.854-4.435-8.143-11.192c3.12,4.702,6.945,8.47,12.721,9.7c0.207,0.043,0.411,0.092,0.624,0.129
			c0.221,0.038,0.446,0.071,0.672,0.104c-0.193,0.053-0.389,0.104-0.591,0.146c-2.614,0.554-4.016,1.076-4.736,1.418
			c-0.264,0.126-0.437,0.226-0.542,0.296c-0.104,0.068-0.147,0.109-0.147,0.109l0.277,0.546l0.008,0.018l0.12,0.235l0.12,0.236
			l0.732,1.438c0.083,0.01,0.163,0.017,0.244,0.017c0.775,0,1.469-0.501,1.965-0.995c0.063-0.065,0.128-0.128,0.185-0.191
			c0.063-0.07,0.118-0.135,0.172-0.199c0.05-0.062,0.096-0.116,0.137-0.17c0.038-0.049,0.077-0.101,0.105-0.141
			c0.02-0.039,0.038-0.073,0.058-0.103c0.062-0.099,0.096-0.142,0.1-0.142c0.006,0-0.049,0.097-0.156,0.244
			c-0.016,0.033-0.033,0.082-0.051,0.123c-0.029,0.075-0.06,0.157-0.091,0.252c-0.026,0.08-0.054,0.165-0.081,0.257
			c-0.023,0.085-0.049,0.169-0.072,0.263c-0.108,0.412-0.217,0.901-0.321,1.409c-0.02,0.095-0.038,0.191-0.057,0.287
			s-0.038,0.19-0.055,0.286c-0.271,1.4-0.475,2.752-0.475,2.752s2.574,1.436,2.938,1.436c0.053,0,0.061-0.027,0.013-0.091
			c-0.391-0.521-0.347-2.084,0.087-2.95c0.196-0.395,0.374-1.223,0.512-2.014c0.003-0.015,0.005-0.029,0.008-0.046
			c0.159-0.936,0.262-1.804,0.262-1.804l1.03-0.903l0.002-0.013c0.062,0.008,0.15,0.043,0.235,0.126
			c0.017,0.009,0.031,0.017,0.049,0.025l-0.016,0.007c0.067,0.079,0.131,0.198,0.178,0.375c0.024,0.092,0.045,0.199,0.057,0.324
			c0.028,0.262,0.03,0.598-0.018,1.042c-0.15,1.385,1.035,2.771,1.355,2.898c0.196,0.079,1.199,0.07,2.236,0.02
			c-0.403-0.409-0.924-1.109-1.113-2.115c-0.04-0.214-0.062-0.412-0.083-0.606c-0.012-0.105-0.022-0.209-0.029-0.31
			c-0.008-0.104-0.015-0.207-0.021-0.305c-0.003-0.047-0.008-0.101-0.01-0.146c-0.05-0.93-0.098-1.353-0.703-1.608l0.103-0.239
			l0.01-0.025c0.012-0.051,0.032-0.104,0.066-0.157l0.024-0.059c0.006,0.002,0.01,0.006,0.016,0.01
			c0.07-0.095,0.167-0.19,0.293-0.289c0.158-0.126,0.353-0.255,0.572-0.385c0.206-0.12,0.432-0.24,0.668-0.356
			c1.229-0.61,2.691-1.129,2.691-1.129s-0.607-0.911-1.389-2.169c-0.117-0.188-0.264-0.269-0.446-0.269
			c-0.785,0-2.209,1.534-4.529,2.63c-0.077,0.036-0.158,0.07-0.235,0.106c-0.036-0.075-0.088-0.139-0.158-0.189
			c-0.008-0.006-0.013-0.012-0.02-0.018c-0.071-0.047-0.152-0.084-0.254-0.09c-0.054-0.004-0.103-0.015-0.154-0.021
			c-8.876-0.767-13.646-8.233-17.535-15.41c-2.642-4.877-5.095-10.165-8.722-14.421c-3.322-5.167-5.145-6.885-5.257-6.987
			c-0.354-0.395-0.846-0.603-1.425-0.603c-2.326,0-5.923,3.363-8.53,6.184c-4.427,4.788-3.682,11.628,2.572,23.606
			C10.834,42.431,8.674,57.956,8.653,58.111z"/>
		<path d="M26.49,49.612l13.591-3.832c0.05-0.252,0.102-0.504,0.154-0.747c-0.445,0.288-0.968,0.5-1.539,0.5
			c-0.104,0-0.209-0.007-0.316-0.021l-0.269-0.039l-0.123-0.24l-0.771-1.518l-11.565,3.634l-0.497,0.157L24.66,47.66l-0.401,0.126
			l0.827,2.222l0.396-0.111l0.503-0.142L26.49,49.612z"/>
		<path d="M48.284,44.316c2.473,1.262,5.503,2.739,6.117,2.739c0.073,0,0.111-0.021,0.111-0.064c0-0.694-1.476-3.256-1.476-3.256
			c-0.94-0.704-3.946-1.328-5.267-1.575c0.414,0.426,0.448,1.031,0.485,1.706C48.261,44.005,48.273,44.163,48.284,44.316z"/>
	</g>
</g>
</svg>
