<?xml version="1.0" encoding="iso-8859-1"?>
<!-- Generator: Adobe Illustrator 19.0.0, SVG Export Plug-In . SVG Version: 6.00 Build 0)  -->
<!-- License: CC0. Made by SVG Repo: https://www.svgrepo.com/svg/202856/voodoo-doll-horror -->
<svg width="20" height="20" version="1.1" id="Layer_1" xmlns="http://www.w3.org/2000/svg" xmlns:xlink="http://www.w3.org/1999/xlink" x="0px" y="0px"
	 viewBox="0 0 512 512" style="enable-background:new 0 0 512 512;" xml:space="preserve">
<g>
	<path style="fill:#E09B2D;" d="M144.748,229.326l21.135-21.124c5.604-5.604,12.207-9.984,19.394-12.96
		c7.176-2.976,14.947-4.548,22.876-4.548c3.324,0,4.47-4.391,1.595-6.031c-29.771-17.025-49.828-49.087-49.828-85.843
		c0-22.516,7.535-43.281,20.214-59.89c18.777-24.605,48.84-40.137,82.463-38.856c23.684,0.898,45.213,10.219,61.766,24.998
		c20.506,18.294,33.376,44.954,33.208,74.321c-0.202,36.498-20.203,68.313-49.806,85.259c-1.134,0.651-1.651,1.729-1.651,2.796
		c0,1.64,1.213,3.246,3.223,3.246c15.857,0,31.063,6.3,42.281,17.508l45.01,45.01l33.208,33.208
		c6.794,6.805,10.197,15.722,10.197,24.639c0,8.905-3.403,17.811-10.197,24.616c-13.6,13.6-35.644,13.6-49.244,0l-37.172-37.172
		l8.737,85.068l9.22,89.807c0.124,1.224,0.191,2.437,0.191,3.627c0,19.091-15.509,34.993-35.049,34.993
		c-17.845,0-32.826-13.42-34.813-31.152l-10.062-76.657c-1.303-11.657-11.163-20.484-22.898-20.484
		c-11.735,0-21.596,8.827-22.898,20.484l-10.062,76.657c-0.999,8.872-5.233,16.666-11.466,22.224
		c-6.21,5.57-14.419,8.928-23.347,8.928c-20.765,0-36.97-17.957-34.858-38.62l3.751-36.554v-0.011l14.206-138.31l-37.172,37.172
		c-6.805,6.805-15.711,10.197-24.628,10.197c-8.906,0-17.822-3.391-24.616-10.197c-13.6-13.6-13.6-35.644,0-49.255L144.748,229.326z
		"/>
	<path style="fill:#E09B2D;" d="M348.164,37.232c-0.426,0.109-0.873,0.171-1.332,0.176l-21.671,0.27
		c-1.689,0.021-3.297-0.719-4.38-2.015c-1.083-1.296-1.524-3.01-1.203-4.667l2.701-13.947c0.59-3.043,3.533-5.033,6.58-4.446
		c3.044,0.59,5.034,3.535,4.445,6.581l-1.39,7.179l14.778-0.184c3.102-0.039,5.647,2.444,5.685,5.545
		C352.409,34.364,350.613,36.602,348.164,37.232z"/>
</g>
<g>
	<path style="fill:#C9841F;" d="M178.011,473.378l3.751-36.554v-0.011l12.249-119.249c1.048-10.196-6.954-19.061-17.203-19.061l0,0
		l-16.943,138.31v0.011l-3.751,36.554c-2.111,20.663,14.094,38.62,34.858,38.62c3.809,0,7.485-0.615,10.934-1.75
		C186.739,505.261,176.289,490.22,178.011,473.378z"/>
	<path style="fill:#C9841F;" d="M109.552,335.675c-13.6-13.6-13.6-35.644,0-49.255l57.094-57.094l21.135-21.124
		c5.604-5.604,12.207-9.984,19.394-12.96c7.176-2.976,14.947-4.548,22.876-4.548c3.324,0,4.47-4.391,1.595-6.031
		c-29.771-17.025-49.828-49.087-49.828-85.843c0-22.516,7.535-43.281,20.214-59.89c15.958-20.912,40.069-35.26,67.587-38.315
		c-2.32-0.255-4.657-0.451-7.022-0.541c-33.623-1.28-63.686,14.251-82.463,38.856c-12.679,16.609-20.214,37.374-20.214,59.89
		c0,36.756,20.057,68.818,49.828,85.843c2.875,1.64,1.729,6.031-1.595,6.031c-7.928,0-15.7,1.572-22.876,4.548
		c-7.187,2.976-13.791,7.356-19.394,12.96l-21.135,21.124L87.654,286.42c-13.6,13.611-13.6,35.656,0,49.255
		c6.794,6.805,15.711,10.197,24.616,10.197c3.703,0,7.402-0.594,10.952-1.765C118.225,342.457,113.524,339.654,109.552,335.675z"/>
	<path style="fill:#C9841F;" d="M313.603,480.847l-10.062-76.657c-1.303-11.657-11.163-20.484-22.898-20.484
		c-3.951,0-7.678,1.02-10.949,2.791c6.445,3.491,11.085,9.96,11.95,17.692l10.062,76.657c1.988,17.732,16.969,31.152,34.813,31.152
		c3.838,0,7.517-0.621,10.957-1.752C324.767,506.065,315.167,494.792,313.603,480.847z"/>
</g>
<g>
	<path style="fill:#995C0D;" d="M232.001,70.053c-2.191-2.192-5.749-2.192-7.94,0l-8.737,8.733l-8.738-8.735
		c-2.193-2.191-5.748-2.191-7.941,0.003c-2.192,2.193-2.19,5.749,0.003,7.941l8.733,8.729l-8.733,8.729
		c-2.193,2.192-2.195,5.748-0.003,7.941c1.097,1.098,2.535,1.646,3.972,1.646c1.436,0,2.873-0.548,3.969-1.643l8.738-8.735
		l8.737,8.733c1.096,1.096,2.534,1.644,3.97,1.644s2.875-0.548,3.97-1.644c2.193-2.193,2.193-5.749,0-7.941l-8.735-8.73l8.735-8.73
		C234.194,75.802,234.194,72.245,232.001,70.053z"/>
	<path style="fill:#995C0D;" d="M310.109,86.725l8.735-8.73c2.193-2.193,2.193-5.749,0-7.941c-2.191-2.192-5.749-2.192-7.94,0
		l-8.737,8.733l-8.738-8.735c-2.194-2.191-5.749-2.191-7.941,0.003c-2.192,2.193-2.19,5.749,0.003,7.941l8.733,8.729l-8.733,8.729
		c-2.193,2.192-2.195,5.748-0.003,7.941c1.097,1.098,2.535,1.646,3.972,1.646c1.436,0,2.873-0.548,3.969-1.643l8.738-8.735
		l8.737,8.733c1.096,1.096,2.534,1.644,3.97,1.644c1.436,0,2.875-0.548,3.97-1.644c2.193-2.193,2.193-5.749,0-7.941L310.109,86.725z
		"/>
	<path style="fill:#995C0D;" d="M310.033,130.893h-5.998v-5.233c0-3.101-2.513-5.615-5.615-5.615c-3.102,0-5.615,2.514-5.615,5.615
		v5.233h-15.217v-5.233c0-3.101-2.513-5.615-5.615-5.615s-5.615,2.514-5.615,5.615v5.233H251.13v-5.233
		c0-3.101-2.513-5.615-5.615-5.615s-5.615,2.514-5.615,5.615v5.233h-15.217v-5.233c0-3.101-2.513-5.615-5.615-5.615
		c-3.102,0-5.615,2.514-5.615,5.615v5.233h-5.998c-3.102,0-5.615,2.514-5.615,5.615s2.513,5.615,5.615,5.615h5.998v6.367
		c0,3.101,2.513,5.615,5.615,5.615c3.102,0,5.615-2.514,5.615-5.615v-6.367H239.9v6.367c0,3.101,2.513,5.615,5.615,5.615
		s5.615-2.514,5.615-5.615v-6.367h15.228v6.367c0,3.101,2.513,5.615,5.615,5.615s5.615-2.514,5.615-5.615v-6.367h15.217v6.367
		c0,3.101,2.513,5.615,5.615,5.615c3.102,0,5.615-2.514,5.615-5.615v-6.367h5.998c3.102,0,5.615-2.514,5.615-5.615
		S313.135,130.893,310.033,130.893z"/>
</g>
<g>
	
		<rect x="80.069" y="212.741" transform="matrix(-0.7071 -0.7071 0.7071 -0.7071 73.4177 466.0002)" style="fill:#4D4D4D;" width="106.303" height="10.107"/>
	
		<rect x="283.772" y="245.786" transform="matrix(-0.8976 -0.4408 0.4408 -0.8976 417.4994 689.4351)" style="fill:#4D4D4D;" width="10.107" height="100.88"/>
	
		<rect x="395.828" y="177.225" transform="matrix(-0.9863 -0.1648 0.1648 -0.9863 758.7619 518.2706)" style="fill:#4D4D4D;" width="10.107" height="100.866"/>
</g>
<g>
	<path style="fill:#C9841F;" d="M87.656,292.595c-1.699,0-3.39-0.696-4.61-2.064l-9.512-10.657
		c-2.271-2.545-2.049-6.449,0.495-8.721c2.546-2.272,6.449-2.049,8.721,0.495l9.512,10.657c2.271,2.545,2.049,6.449-0.495,8.721
		C90.588,292.079,89.12,292.595,87.656,292.595z"/>
	<path style="fill:#C9841F;" d="M159.875,443.001h-0.012c-1.817,0-3.451-0.785-4.581-2.034L142.3,427.986
		c-2.412-2.412-2.412-6.323,0-8.735c2.41-2.411,6.324-2.411,8.734,0l13.195,13.195c0.427,0.426,0.784,0.907,1.065,1.427
		c0.48,0.877,0.751,1.882,0.751,2.95C166.046,440.236,163.286,443.001,159.875,443.001z"/>
	<path style="fill:#C9841F;" d="M144.776,451.144c-2.198,0-4.326-1.176-5.442-3.246c-1.619-3.002-0.497-6.749,2.503-8.369
		l15.092-8.142c3.001-1.619,6.749-0.499,8.369,2.503c1.619,3.002,0.497,6.749-2.503,8.369l-15.092,8.142
		C146.771,450.905,145.767,451.144,144.776,451.144z"/>
</g>
<g>
	<path style="fill:#E09B2D;" d="M352.158,389.749c-2.553,0-4.94-1.594-5.83-4.141c-1.126-3.22,0.572-6.743,3.791-7.869l14.97-5.233
		c3.224-1.128,6.744,0.573,7.869,3.792c1.126,3.22-0.572,6.743-3.791,7.869l-14.97,5.233
		C353.522,389.637,352.832,389.749,352.158,389.749z"/>
	<path style="fill:#E09B2D;" d="M350.461,217.318c-2.651,0.761-5.58-0.335-7.036-2.827c-1.718-2.947-0.724-6.729,2.222-8.447
		l12.49-7.288c2.945-1.72,6.727-0.724,8.447,2.221c1.718,2.947,0.724,6.729-2.222,8.447l-12.49,7.288
		C351.419,216.979,350.945,217.179,350.461,217.318z"/>
</g>
<path style="fill:#C9841F;" d="M157.499,48.544c-2.673,0-5.041-1.916-5.523-4.639c-0.539-3.055,1.499-5.967,4.553-6.507
	l12.004-2.121l-3.563-3.56c-2.194-2.192-2.197-5.748-0.004-7.941c2.19-2.194,5.748-2.194,7.94-0.004l11.198,11.185
	c1.481,1.48,2.017,3.661,1.388,5.659c-0.63,1.998-2.317,3.479-4.379,3.843l-22.629,3.998
	C158.152,48.515,157.823,48.544,157.499,48.544z"/>
<path style="fill:#9AD14B;" d="M413.283,153.365c8.153,1.359,13.667,9.074,12.297,17.227c-1.359,8.164-9.074,13.667-17.227,12.308
	c-8.153-1.359-13.667-9.074-12.308-17.238C397.404,157.509,405.119,151.995,413.283,153.365z"/>
<path style="fill:#90BC42;" d="M404.467,165.662c0.975-5.849,5.225-10.322,10.561-11.887c-0.568-0.166-1.147-0.31-1.745-0.41
	c-8.164-1.37-15.879,4.144-17.238,12.297c-1.359,8.164,4.155,15.879,12.308,17.238c2.303,0.384,4.565,0.203,6.665-0.413
	C407.85,180.388,403.209,173.223,404.467,165.662z"/>
<path style="fill:#2BA5F7;" d="M322.016,228.618c7.423,3.639,10.489,12.611,6.839,20.035c-3.639,7.423-12.611,10.489-20.035,6.839
	c-7.423-3.65-10.489-12.623-6.839-20.035C305.631,228.034,314.604,224.968,322.016,228.618z"/>
<path style="fill:#F95428;" d="M88.62,158.228c8.277,0,14.981,6.704,14.981,14.97c0,8.265-6.704,14.97-14.981,14.97
	c-8.265,0-14.97-6.704-14.97-14.97C73.65,164.932,80.354,158.228,88.62,158.228z"/>
<path style="fill:#2197D8;" d="M309.071,239.588c0.975-5.849,5.225-10.322,10.561-11.887c-0.568-0.166-1.147-0.31-1.745-0.41
	c-8.164-1.37-15.879,4.144-17.238,12.297c-1.359,8.164,4.155,15.879,12.308,17.238c2.303,0.384,4.565,0.203,6.665-0.413
	C312.453,254.314,307.812,247.149,309.071,239.588z"/>
<path style="fill:#E54728;" d="M82.278,170.73c0.975-5.849,5.225-10.322,10.561-11.887c-0.568-0.166-1.147-0.31-1.745-0.41
	c-8.164-1.37-15.879,4.144-17.238,12.297c-1.359,8.164,4.155,15.879,12.308,17.238c2.303,0.384,4.565,0.203,6.665-0.413
	C85.662,185.456,81.019,178.291,82.278,170.73z"/>
</svg>
