<?xml version="1.0" encoding="iso-8859-1"?>
<!-- Generator: Adobe Illustrator 18.0.0, SVG Export Plug-In . SVG Version: 6.00 Build 0)  -->
<!DOCTYPE svg PUBLIC "-//W3C//DTD SVG 1.1//EN" "http://www.w3.org/Graphics/SVG/1.1/DTD/svg11.dtd">
<!-- License: CC0. Made by SVG Repo: https://www.svgrepo.com/svg/111396/skull-and-dagger -->
<svg fill="white"  width="20" height="20" version="1.1" id="Capa_1" xmlns="http://www.w3.org/2000/svg" xmlns:xlink="http://www.w3.org/1999/xlink" x="0px" y="0px"
	 viewBox="0 0 466.959 466.959" style="enable-background:new 0 0 466.959 466.959;" xml:space="preserve">
<g>
	<path d="M172.594,299.034c-5.035-1.227-9.543-2.688-13.52-3.979c-11.762-3.815-21.921-7.111-30.915,2.462
		c-11.265,11.991-8.857,32.619,5.367,45.982c6.786,6.375,15.252,10.196,23.838,10.76c0.74,0.049,1.472,0.073,2.199,0.073
		c7.987,0,15.094-2.921,20.19-8.346c7.231-7.698,10.429-22.032,7.278-32.633C184.799,305.843,179.672,300.757,172.594,299.034z
		 M173.922,340.509c-3.892,4.143-9.583,6.194-16.034,5.768c-6.74-0.442-13.447-3.5-18.885-8.608
		c-11.009-10.342-13.258-25.897-5.013-34.673c2.511-2.673,4.985-3.774,8.185-3.774c3.563,0,8.023,1.366,14.43,3.444
		c4.111,1.333,8.77,2.845,14.096,4.142c4.32,1.052,7.234,4.021,8.662,8.826C181.739,323.627,179.298,334.787,173.922,340.509z"/>
	<path d="M98.611,319.826c-0.506-1.647-2.009-2.786-3.732-2.826c-1.746-0.029-3.277,1.029-3.858,2.651l-6.563,18.337
		c-0.71,1.983,0.24,4.177,2.172,5.017l14.065,6.112c0.513,0.223,1.055,0.332,1.593,0.332c0.966,0,1.919-0.35,2.667-1.018
		c1.164-1.04,1.617-2.663,1.159-4.156L98.611,319.826z M93.251,337.159l1.244-3.475l1.422,4.634L93.251,337.159z"/>
	<path d="M403.673,147.934c-4.156-2.125-8.891-2.503-13.332-1.067s-8.057,4.516-10.181,8.672c-1.006,1.967-0.226,4.377,1.741,5.382
		c1.968,1.007,4.376,0.226,5.382-1.741c1.152-2.253,3.112-3.923,5.52-4.702c2.407-0.778,4.975-0.573,7.228,0.578
		c2.253,1.152,3.923,3.112,4.702,5.52s0.573,4.975-0.578,7.228c-1.949,3.813-5.266,6.638-9.34,7.956
		c-4.074,1.317-8.417,0.971-12.229-0.979l-34.276-17.521c5.716-1.711,10.174-5.271,12.695-10.203
		c2.313-4.523,2.713-9.807,1.229-15.009c5.086-1.843,9.134-5.263,11.446-9.786c2.313-4.523,2.714-9.807,1.229-15.009
		c5.086-1.843,9.134-5.263,11.446-9.786c0,0,0,0,0,0c2.313-4.523,2.713-9.806,1.229-15.008c5.086-1.843,9.134-5.262,11.445-9.786
		c2.862-5.599,2.834-12.186-0.08-18.546c-0.932-2.034-2.138-3.96-3.561-5.756c0.432-0.11,0.864-0.225,1.292-0.363
		c5.231-1.692,9.491-5.32,11.993-10.216c4.638-9.072-0.839-30.613-1.984-34.839c-0.295-1.089-1.036-2.002-2.04-2.516
		c-1.004-0.514-2.179-0.579-3.234-0.181c-4.096,1.547-24.763,9.724-29.4,18.796c-2.808,5.494-2.9,11.671-0.778,16.997
		c-9.382-0.402-17.944,3.614-21.847,11.249c-2.313,4.523-2.714,9.807-1.229,15.009c-5.086,1.843-9.134,5.263-11.446,9.786
		c-2.312,4.523-2.713,9.806-1.229,15.008c-5.086,1.843-9.133,5.262-11.446,9.786c-2.312,4.523-2.713,9.807-1.228,15.008
		c-5.086,1.843-9.134,5.262-11.446,9.785c-2.521,4.932-2.796,10.631-0.835,16.266l-34.644-17.709
		c-5.715-2.922-12.226-3.442-18.333-1.467c-6.107,1.976-11.079,6.211-14,11.926c-2.125,4.156-2.503,8.891-1.067,13.332
		c1.437,4.441,4.517,8.057,8.672,10.181c2.499,1.278,5.207,1.924,7.935,1.924c1.809,0,3.626-0.284,5.396-0.857
		c4.441-1.437,8.057-4.517,10.181-8.673c1.006-1.967,0.226-4.376-1.741-5.382c-1.967-1.007-4.377-0.226-5.382,1.741
		c-1.152,2.253-3.112,3.923-5.52,4.702c-2.406,0.779-4.974,0.574-7.228-0.578c-2.253-1.152-3.923-3.112-4.702-5.52
		s-0.573-4.975,0.579-7.228c1.949-3.813,5.266-6.638,9.339-7.956c4.075-1.317,8.417-0.971,12.229,0.979l31.746,16.228
		c-14.504,22.098-27.614,46.747-40.818,76.887c-12.377-3.41-25.195-5.157-38.166-5.157c-7.895,0-15.8,0.645-23.498,1.917
		c-0.039,0.005-0.077,0.011-0.115,0.017c-42.548,7.042-79.316,32.621-100.874,70.171c-3.251,5.648-7.75,10.279-13.014,13.396
		c-1.776,1.054-6.128,2.375-8.454,2.96c-1.237,0.312-2.252,1.194-2.732,2.376c-0.134,0.331-3.308,8.208-5.506,17.808
		c-3.102,13.549-2.673,23.58,1.256,29.788c0.021,0.035,0.042,0.069,0.064,0.104c1.563,2.425,1.942,5.4,1.041,8.161l-17.273,52.851
		l-0.239,0.634c-3.072,8.368-2.39,17.653,1.873,25.476c4.26,7.817,11.686,13.421,20.373,15.375l39.211,8.83
		c5.323,1.198,10.677,1.776,15.979,1.776c25.811-0.001,50.29-13.72,62.908-36.52c0.803-1.45,1.559-2.932,2.264-4.438
		c26.846,25.907,61.943,40.1,99.498,40.1h0.235c16.148-0.021,31.695-7.861,41.587-20.971c18.892-25.035,28.877-54.89,28.877-86.339
		c0-45.776-21.894-88.775-58.743-115.784c2.821-4.807,5.518-9.512,8.082-14.129c0.566-1.02,0.659-2.237,0.254-3.331l-3.886-10.493
		l6.098,2.121c1.874,0.653,3.942-0.168,4.86-1.927c8.964-17.176,16.312-33.377,22.425-49.387l31.386,16.044
		c11.795,6.03,26.303,1.339,32.333-10.459C415.664,162.866,412.252,152.319,403.673,147.934z M379.137,22.695
		c2.038-3.986,12.346-9.589,20.911-13.258c2.042,9.091,3.539,20.729,1.501,24.714c0,0,0,0,0,0c-1.53,2.993-4.134,5.211-7.333,6.246
		c-3.198,1.035-6.608,0.761-9.602-0.769C378.436,36.471,375.979,28.874,379.137,22.695z M356.513,50.942
		c2.319-4.538,7.438-6.98,13.325-6.98c3.581,0,7.446,0.904,11.136,2.791c4.88,2.495,8.681,6.297,10.701,10.708
		c1.873,4.089,1.955,8.199,0.229,11.573c-1.838,3.597-5.497,5.987-10.302,6.729c-1.269,0.196-2.367,0.989-2.951,2.132
		c-0.584,1.144-0.584,2.498,0,3.641c2.213,4.33,2.418,8.695,0.58,12.292c-1.43,2.797-3.97,4.851-7.283,5.981
		c0,0-15.26-37.404-15.435-37.818C354.859,58.076,354.85,54.195,356.513,50.942z M343.838,75.736c1.43-2.797,3.97-4.851,7.283-5.981
		c0,0,14.801,36.47,14.855,36.575c2.213,4.329,2.419,8.694,0.58,12.292c-1.425,2.787-3.951,4.838-7.247,5.97L344.586,88.3
		l-0.058,0.024c-0.04-0.098-0.061-0.201-0.109-0.296C342.206,83.699,342,79.333,343.838,75.736z M311.155,147.255l10.885,5.564
		l-57.052,112.125c-2.216-3.225-4.926-6.078-8.048-8.477C274.934,210.588,291.788,176.623,311.155,147.255z M72.66,392.596
		l2.716-7.869l8.394,2.696l-2.778,8.048c-0.384,1.113-1.179,2.01-2.237,2.525c-1.058,0.516-2.253,0.587-3.368,0.203
		c-1.113-0.384-2.009-1.178-2.524-2.237C72.348,394.904,72.276,393.708,72.66,392.596z M116.849,398.047l-2.666,9.123
		c-0.682,2.333-3.131,3.676-5.467,2.995c-2.333-0.682-3.676-3.134-2.994-5.467l2.732-9.347L116.849,398.047z M110.698,387.668
		l2.438-8.342c0.331-1.13,1.081-2.064,2.113-2.629c0.658-0.36,1.381-0.544,2.111-0.544c0.415,0,0.833,0.06,1.243,0.179
		c1.13,0.33,2.063,1.081,2.629,2.113c0.566,1.032,0.695,2.223,0.365,3.353l-2.503,8.566L110.698,387.668z M105.613,376.382
		l-2.961,8.702l-8.394-2.696l3.01-8.846c0.624-1.832,2.341-2.988,4.176-2.988c0.47,0,0.947,0.076,1.416,0.235
		C105.161,371.573,106.396,374.081,105.613,376.382z M100.075,392.659l-2.976,8.746c-0.783,2.301-3.293,3.533-5.592,2.753
		c-2.301-0.783-3.536-3.292-2.753-5.592l2.927-8.603L100.075,392.659z M89.616,370.485l-3.235,9.373l-8.394-2.696l3.297-9.553
		c0.629-1.823,2.341-2.97,4.17-2.97c0.476,0,0.959,0.078,1.434,0.242c1.113,0.384,2.01,1.179,2.525,2.237
		C89.928,368.177,90,369.372,89.616,370.485z M360.469,358.791c0,29.696-9.427,57.885-27.263,81.521
		c-8.392,11.121-21.555,17.771-35.207,17.79h-0.23c-36.564,0-70.658-14.258-96.291-40.19c1.919-5.811,3.09-11.836,3.502-17.984
		c9.676-0.668,18.338-6.078,23.268-14.6c5.194-8.978,5.464-19.817,0.722-28.995c-6.916-13.385-6.688-29.246,0.608-42.428
		c1.07-1.933,0.371-4.367-1.563-5.437c-1.933-1.071-4.367-0.371-5.437,1.563c-8.595,15.526-8.862,34.208-0.717,49.974
		c3.483,6.743,3.282,14.711-0.54,21.317c-3.731,6.449-10.073,10.337-17.399,10.667c-0.362,0.017-0.726,0.025-1.092,0.025
		c-13.114,0-23.783-10.669-23.783-23.783c0-2.209-1.791-4-4-4s-4,1.791-4,4c0,15.531,11.2,28.486,25.945,31.236
		c-0.423,6.208-1.707,12.275-3.851,18.077c-0.002,0.005-2.533,6.132-4.134,9.021c-13.5,24.395-42.342,37.067-70.131,30.814
		l-39.211-8.831c-6.441-1.448-11.947-5.602-15.104-11.397c-3.161-5.8-3.667-12.686-1.417-18.814l0.258-0.683
		c0.028-0.072,0.055-0.146,0.079-0.22l4.732-14.479c1.284,1.241,2.825,2.208,4.564,2.807c1.327,0.458,2.695,0.686,4.059,0.686
		c1.683,0,3.354-0.365,4.933-1.054c1.397,2.882,3.896,5.228,7.16,6.339c1.32,0.449,2.664,0.663,3.986,0.663
		c2.012,0,3.971-0.5,5.72-1.407c1.436,3.208,4.207,5.794,7.837,6.855c1.157,0.338,2.325,0.5,3.474,0.5
		c2.643,0,5.184-0.856,7.275-2.366c0.295,0.832,0.673,1.641,1.149,2.409c1.745,2.817,4.482,4.787,7.708,5.545
		c0.951,0.224,1.902,0.331,2.84,0.331c3.981,0,7.696-1.939,10.008-5.092c1.745,2.395,4.254,4.076,7.168,4.761
		c0.951,0.223,1.91,0.333,2.863,0.333c2.28,0,4.522-0.633,6.509-1.864c2.817-1.745,4.787-4.482,5.545-7.708l2.426-10.318
		c2.415-0.291,4.822-0.675,7.212-1.164c2.165-0.442,3.561-2.555,3.118-4.72c-0.443-2.166-2.56-3.56-4.72-3.118
		c-1.211,0.247-2.428,0.457-3.647,0.649l1.66-7.06c1.565-6.66-2.579-13.352-9.239-14.917c-4.991-1.174-10,0.861-12.856,4.757
		c-1.687-2.308-4.166-4.053-7.16-4.757c-3.242-0.762-6.487-0.163-9.149,1.413c-1.442-3.183-4.202-5.748-7.811-6.803
		c-2.823-0.826-5.779-0.626-8.441,0.541c-1.427-2.714-3.843-4.914-6.969-5.978c-3.011-1.024-6.142-0.809-8.858,0.352
		c-1.454-2.955-3.966-5.174-7.081-6.25h0c-2.672-0.922-5.445-0.862-7.942-0.031c-0.269-2.711-1.152-5.353-2.662-7.714
		c-0.017-0.028-0.036-0.058-0.044-0.072c-5.34-8.435,0.667-29.148,4.176-38.508c2.377-0.681,6.231-1.907,8.562-3.29
		c6.444-3.815,11.932-9.446,15.872-16.29c20.342-35.434,55.016-59.576,95.142-66.249c0.038-0.005,0.076-0.011,0.114-0.018
		c7.3-1.211,14.801-1.826,22.295-1.826c11.875,0,23.614,1.54,34.965,4.565c-1.281,3.007-2.563,6.047-3.85,9.165
		c-8.148-2.205-16.834-0.449-25.225,5.134c-6.447,4.289-10.488,9.36-10.657,9.574c-1.092,1.383-1.151,3.317-0.145,4.764
		c1.006,1.446,2.842,2.064,4.517,1.52c7.581-2.458,15.667-1.818,22.768,1.805s12.364,9.793,14.823,17.375
		c3.118,9.615,9.793,17.44,18.796,22.034c5.406,2.758,11.26,4.153,17.159,4.153c3.925,0,7.871-0.619,11.713-1.865
		c1.656-0.537,2.774-2.083,2.766-3.824c-0.009-1.741-1.142-3.276-2.803-3.797c-0.165-0.052-15.724-5.055-21.386-16.543
		c6.299-9.733,11.966-18.802,17.173-27.466C340.046,275.444,360.469,315.825,360.469,358.791z M135.443,403.359l-2.234,9.502
		c-0.556,2.365-2.932,3.842-5.299,3.282c-2.366-0.556-3.838-2.933-3.282-5.298l2.259-9.61
		C129.708,402.079,132.561,402.797,135.443,403.359z M128.721,393.437l1.957-8.324c0.477-2.028,2.291-3.399,4.29-3.399
		c0.333,0,0.671,0.038,1.008,0.118c2.366,0.556,3.838,2.933,3.282,5.298l-1.982,8.43
		C134.393,395.009,131.537,394.299,128.721,393.437z M152.683,405.023c0.797,0,1.595-0.012,2.392-0.033l-1.85,7.871
		c-0.269,1.146-0.969,2.119-1.969,2.738c-1.001,0.621-2.183,0.813-3.329,0.543c-1.146-0.269-2.119-0.969-2.738-1.969
		c-0.62-1.001-0.813-2.183-0.543-3.329l1.427-6.07C148.271,404.936,150.477,405.023,152.683,405.023z M147.926,396.882l2.766-11.769
		c0.477-2.028,2.292-3.399,4.291-3.399c0.333,0,0.671,0.038,1.008,0.118c2.366,0.556,3.838,2.933,3.282,5.298l-2.297,9.772
		C153.96,397.06,150.939,397.057,147.926,396.882z M253.067,244.549c-1.018,2.527-2.038,5.085-3.063,7.687
		c-4.548-2.156-9.387-3.379-14.289-3.622C240.421,245.57,246.531,243.157,253.067,244.549z M280.49,289.532
		c1.049-1.583,2.084-3.151,3.101-4.7c3.041,4.355,7.027,7.757,10.87,10.321C289.384,294.503,284.575,292.541,280.49,289.532z
		 M319.63,208.481l-10.837-3.769c-1.462-0.508-3.087-0.128-4.17,0.978c-1.084,1.105-1.432,2.737-0.895,4.189l6.192,16.719
		c-9.633,17.231-20.928,35.572-35.267,57.261c-2.075-2.662-3.737-5.714-4.837-9.106c-0.107-0.331-0.229-0.654-0.345-0.981
		l59.692-117.313l11.242,5.746C334.706,177.23,327.881,192.433,319.63,208.481z M344.367,150.007
		c-4.756,0.946-10.066,0.092-14.946-2.402c-4.88-2.495-8.68-6.297-10.7-10.708c-1.873-4.089-1.955-8.199-0.23-11.573
		c1.839-3.597,5.498-5.986,10.303-6.729c1.269-0.196,2.367-0.989,2.951-2.133c0.584-1.143,0.584-2.498,0-3.641
		c-2.213-4.329-2.419-8.694-0.581-12.291c1.435-2.807,3.989-4.865,7.32-5.993c0,0,14.709,36.371,14.818,36.586
		c2.213,4.329,2.419,8.694,0.58,12.292C352.158,146.79,348.778,149.131,344.367,150.007z"/>
</g>
</svg>
