<?xml version="1.0" encoding="utf-8"?>

<!-- License: PD. Made by Jackey Jia: https://www.behance.net/a9294507676066 -->
<svg width="20px" height="20px" viewBox="0 0 1024 1024" class="icon"  version="1.1" xmlns="http://www.w3.org/2000/svg"><path d="M512 512m-512 0a512 512 0 1 0 1024 0 512 512 0 1 0-1024 0Z" fill="#E8E8E8" /><path d="M876.8 603.2z" fill="" /><path d="M438.4 153.6l-17.6 3.2c-97.6 22.4-168-3.2-203.2-22.4V496c49.6 46.4 144 51.2 289.6 17.6 137.6-32 283.2 17.6 337.6 40h1.6V164.8c-179.2-62.4-291.2-36.8-408-11.2z" fill="#F2385A" /><path d="M865.6 139.2C672 68.8 548.8 96 430.4 123.2l-17.6 3.2c-90.208 19.552-153.568-4.704-183.44-20.976 16.768-9.856 28.144-27.872 28.144-48.72C257.504 25.392 232.112 0 200.8 0S144.096 25.392 144.096 56.704c0 25.424 16.848 46.688 39.904 53.872V1024h32V536c60.8 38.4 160 40 297.6 8 158.4-36.8 337.6 46.4 339.2 46.4l22.4 11.2V142.4l-9.6-3.2z m-19.2 414.4h-1.6c-54.4-22.4-200-72-337.6-40-145.6 33.6-240 28.8-289.6-17.6V134.4c35.2 19.2 105.6 44.8 203.2 22.4l17.6-3.2c116.8-25.6 228.8-51.2 408 11.2v388.8z" fill="" /><path d="M200.8 56.704m-23.872 0a23.872 23.872 0 1 0 47.744 0 23.872 23.872 0 1 0-47.744 0Z" fill="#F2385A" /></svg>